<svg width="58" height="34" viewBox="0 0 58 34" fill="none" xmlns="http://www.w3.org/2000/svg" xmlns:xlink="http://www.w3.org/1999/xlink">
<rect width="58" height="34" fill="#F5F5F5"/>
<g clip-path="url(#clip0_0_1)">
<rect width="375" height="1594" transform="translate(-31 -65)" fill="white"/>
<path d="M-31 -65H344V103C344 118.085 344 125.627 339.314 130.314C334.627 135 327.085 135 312 135H1C-14.0849 135 -21.6274 135 -26.3137 130.314C-31 125.627 -31 118.085 -31 103V-65Z" fill="url(#paint0_linear_0_1)"/>
<g filter="url(#filter0_d_0_1)">
<rect x="-1" y="59" width="315" height="50" rx="16" fill="white"/>
</g>
<g style="mix-blend-mode:lighten" filter="url(#filter1_d_0_1)">
<rect x="4" width="50" height="26" fill="url(#pattern0)" shape-rendering="crispEdges"/>
<rect x="4.5" y="0.5" width="49" height="25" stroke="black" shape-rendering="crispEdges"/>
</g>
</g>
<defs>
<filter id="filter0_d_0_1" x="-41" y="29" width="395" height="130" filterUnits="userSpaceOnUse" color-interpolation-filters="sRGB">
<feFlood flood-opacity="0" result="BackgroundImageFix"/>
<feColorMatrix in="SourceAlpha" type="matrix" values="0 0 0 0 0 0 0 0 0 0 0 0 0 0 0 0 0 0 127 0" result="hardAlpha"/>
<feOffset dy="10"/>
<feGaussianBlur stdDeviation="20"/>
<feColorMatrix type="matrix" values="0 0 0 0 0 0 0 0 0 0 0 0 0 0 0 0 0 0 0.05 0"/>
<feBlend mode="normal" in2="BackgroundImageFix" result="effect1_dropShadow_0_1"/>
<feBlend mode="normal" in="SourceGraphic" in2="effect1_dropShadow_0_1" result="shape"/>
</filter>
<filter id="filter1_d_0_1" x="0" y="0" width="58" height="34" filterUnits="userSpaceOnUse" color-interpolation-filters="sRGB">
<feFlood flood-opacity="0" result="BackgroundImageFix"/>
<feColorMatrix in="SourceAlpha" type="matrix" values="0 0 0 0 0 0 0 0 0 0 0 0 0 0 0 0 0 0 127 0" result="hardAlpha"/>
<feOffset dy="4"/>
<feGaussianBlur stdDeviation="2"/>
<feComposite in2="hardAlpha" operator="out"/>
<feColorMatrix type="matrix" values="0 0 0 0 0 0 0 0 0 0 0 0 0 0 0 0 0 0 0.25 0"/>
<feBlend mode="normal" in2="BackgroundImageFix" result="effect1_dropShadow_0_1"/>
<feBlend mode="normal" in="SourceGraphic" in2="effect1_dropShadow_0_1" result="shape"/>
</filter>
<pattern id="pattern0" patternContentUnits="objectBoundingBox" width="1" height="1">
<use xlink:href="#image0_0_1" transform="matrix(0.00117188 0 0 0.00225361 -0.1 -0.653846)"/>
</pattern>
<linearGradient id="paint0_linear_0_1" x1="344" y1="135" x2="-172.598" y2="32.4248" gradientUnits="userSpaceOnUse">
<stop stop-color="#FFC896"/>
<stop offset="1" stop-color="#FF7E7E"/>
</linearGradient>
<clipPath id="clip0_0_1">
<rect width="375" height="1594" fill="white" transform="translate(-31 -65)"/>
</clipPath>

</defs>
</svg>
