<svg width="59" height="17" viewBox="0 0 59 17" fill="none" xmlns="http://www.w3.org/2000/svg">
<path d="M0.310547 16V0.445312H3.5332V13.3359H10.2363V16H0.310547ZM25.9414 8.22266C25.9414 13.3037 22.7939 16.2148 18.6797 16.2148C14.5332 16.2148 11.3965 13.2822 11.3965 8.22266C11.3965 3.1416 14.5332 0.230469 18.6797 0.230469C22.7939 0.230469 25.9414 3.1416 25.9414 8.22266ZM14.6836 8.22266C14.6836 11.542 16.2627 13.3467 18.6797 13.3574C21.0752 13.3467 22.665 11.542 22.6543 8.22266C22.665 4.89258 21.0752 3.09863 18.6797 3.08789C16.2627 3.09863 14.6836 4.89258 14.6836 8.22266ZM38.5957 5.45117C38.1553 3.99023 36.9844 3.09863 35.2871 3.08789C32.8809 3.09863 31.248 4.93555 31.248 8.20117C31.248 11.4883 32.8271 13.3467 35.3086 13.3574C37.5322 13.3467 38.8535 12.0898 38.8965 10.1348H35.5234V7.70703H42.0117V9.64062C42.0117 13.7227 39.208 16.2148 35.2871 16.2148C30.9258 16.2148 27.9609 13.1641 27.9609 8.24414C27.9609 3.19531 31.1191 0.230469 35.2227 0.230469C38.7354 0.230469 41.4316 2.38965 41.8613 5.45117H38.5957ZM58.6191 8.22266C58.6191 13.3037 55.4717 16.2148 51.3574 16.2148C47.2109 16.2148 44.0742 13.2822 44.0742 8.22266C44.0742 3.1416 47.2109 0.230469 51.3574 0.230469C55.4717 0.230469 58.6191 3.1416 58.6191 8.22266ZM47.3613 8.22266C47.3613 11.542 48.9404 13.3467 51.3574 13.3574C53.7529 13.3467 55.3428 11.542 55.332 8.22266C55.3428 4.89258 53.7529 3.09863 51.3574 3.08789C48.9404 3.09863 47.3613 4.89258 47.3613 8.22266Z" fill="#333333"/>
</svg>
